[Header]
FileType HTR
DataType HTRS
FileVersion 1
NumSegments 22
NumFrames 5
DataFrameRate 24
EulerRotationOrder ZYX
CalibrationUnits mm
RotationUnits Degrees
GlobalAxisofGravity Y
BoneLengthAxis Y
ScaleFactor 1.0
[SegmentNames&Hierarchy]
reference	GLOBAL
Hips	reference
Spine	Hips
Spine1	Spine
Neck	Spine1
Head	Neck
LeftShoulder	Spine1
LeftArm	LeftShoulder
LeftForeArm	LeftArm
LeftHand	LeftForeArm
RightShoulder	Spine1
RightArm	RightShoulder
RightForeArm	RightArm
RightHand	RightForeArm
LeftUpLeg	Hips
LeftLeg	LeftUpLeg
LeftFoot	LeftLeg
LeftToeBase	LeftFoot
RightUpLeg	Hips
RightLeg	RightUpLeg
RightFoot	RightLeg
RightToeBase	RightFoot
[BasePosition]
reference	0	0	0	0	0	0	1
Hips	0	0	0	0	0	0	1
Spine	0	0	0	0	-0	90	1
Spine1	0	0	0	0	0	0	1
Neck	0	0	0	-7.352430803	-7.352430803	90	1
Head	0	0	0	0	-0	90	1
LeftShoulder	0	0	0	0	0	0	1
LeftArm	0	0	0	0	0	0	1
LeftForeArm	0	0	0	0	0	0	1
LeftHand	0	0	0	0	0	0	1
RightShoulder	0	0	0	0	-0	180	1
RightArm	0	0	0	0	-0	180	1
RightForeArm	0	0	0	0	-0	180	1
RightHand	0	0	0	0	-0	180	1
LeftUpLeg	0	0	0	0	-0	-90	1
LeftLeg	0	0	0	0	-0	-90	1
LeftFoot	0	0	0	66.57150701	-66.57150701	-90	1
LeftToeBase	0	0	0	0	-90	0	1
RightUpLeg	0	0	0	0	-0	-90	1
RightLeg	0	0	0	0	-0	-90	1
RightFoot	0	0	0	66.57150701	-66.57150701	-90	1
RightToeBase	0	0	0	0	-90	0	1
[reference]
28	0	0	0	0	-0	0	1.0
29	0	0	0	0	-0	0	1.0
30	0	0	0	0	-0	0	1.0
31	0	0	0	0	-0	0	1.0
32	0	0	0	0	-0	0	1.0
[Hips]
28	4.748912334	8.201898575	0.6883999705	0.778927803	-113.8900757	-0.5836181641	1.0
29	4.409584045	8.116181374	0.6732876301	-1.290920615	-114.2289963	-0.3214687705	1.0
30	4.021766186	8.011497498	0.6617730856	-3.459802866	-113.9255371	0.1793914437	1.0
31	3.577250004	7.895225525	0.6529144049	-5.972961426	-113.4381943	0.8522033691	1.0
32	3.062657118	7.771343708	0.6457701325	-7.935184956	-112.8534241	0.7979498506	1.0
[Spine]
28	0	0.7478299737	0	-14.11787033	5.36883688	-88.23970795	1.0
29	0	0.7478299737	0	-13.94893646	5.437957287	-88.25549316	1.0
30	0	0.7478299737	0	-13.66503906	5.570174217	-88.04988098	1.0
31	0	0.7478299737	0	-12.84160423	6.046773911	-87.68182373	1.0
32	0	0.7478299737	0	-11.54881859	6.768101692	-87.51735687	1.0
[Spine1]
28	0	2.049309969	0	10.91047287	1.909191847	-1.940771699	1.0
29	0	2.049309969	0	10.24672127	1.869230986	-1.474841237	1.0
30	0	2.049309969	0	9.243268967	1.866425037	-1.244280815	1.0
31	0	2.049309969	0	7.787857056	1.976291895	-0.8404349685	1.0
32	0	2.049309969	0	5.878004074	2.182230949	-0.3912542462	1.0
[Neck]
28	0	2.231709957	0	9.19878006	14.44183636	-87.78301239	1.0
29	0	2.231709957	0	11.51843166	14.72357941	-88.01569366	1.0
30	0	2.231709957	0	12.38484287	14.79778194	-88.30054474	1.0
31	0	2.231709957	0	13.64440632	14.07637978	-88.03271484	1.0
32	0	2.231709957	0	13.90730095	13.29457092	-87.96713257	1.0
[Head]
28	0	1.413589954	0.1823999882	-8.130939484	7.827695847	-96.83068085	1.0
29	0	1.413589954	0.1823999882	-8.695139885	8.017097473	-96.11403656	1.0
30	0	1.413589954	0.1823999882	-7.08062315	8.052612305	-94.40571594	1.0
31	0	1.413589954	0.1823999882	-6.688154221	7.429477692	-94.75793457	1.0
32	0	1.413589954	0.1823999882	-5.267641068	6.719368935	-94.48150635	1.0
[LeftShoulder]
28	0.3649300039	1.825889945	-0.04271000251	-12.67465401	-4.784462929	5.542859554	1.0
29	0.3649300039	1.825889945	-0.04271000251	-13.7730093	-4.4900527	5.868069172	1.0
30	0.3649300039	1.825889945	-0.04271000251	-15.13428593	-4.80414629	6.587784767	1.0
31	0.3649300039	1.825889945	-0.04271000251	-16.47452927	-5.683273315	7.99067688	1.0
32	0.3649300039	1.825889945	-0.04271000251	-16.4795742	-6.88339901	9.652513504	1.0
[LeftArm]
28	1.24003005	0	0	38.97576141	1.788468242	-77.33085632	1.0
29	1.24003005	0	0	41.55498886	-4.272716045	-75.43261719	1.0
30	1.24003005	0	0	44.56131744	-11.38442326	-73.60478973	1.0
31	1.24003005	0	0	46.2345047	-18.94316292	-72.42628479	1.0
32	1.24003005	0	0	46.89713669	-27.36087799	-70.92890167	1.0
[LeftForeArm]
28	2.847419977	0	0	-16.06073189	-45.92450714	11.10284996	1.0
29	2.847419977	0	0	-22.51691055	-52.25556946	20.91368294	1.0
30	2.847419977	0	0	-31.46541977	-55.89044952	33.11852646	1.0
31	2.847419977	0	0	-39.69021606	-57.32154083	44.37341309	1.0
32	2.847419977	0	0	-48.45771027	-57.23524475	56.12708282	1.0
[LeftHand]
28	2.258270025	0	0	-11.75263786	-13.15308857	3.546455145	1.0
29	2.258270025	0	0	-12.54725647	-12.52149677	3.403567553	1.0
30	2.258270025	0	0	-13.89030266	-11.8547945	3.382083893	1.0
31	2.258270025	0	0	-14.78969097	-11.86937046	2.220343113	1.0
32	2.258270025	0	0	-16.27203751	-10.6656971	2.687758446	1.0
[RightShoulder]
28	-0.3646599948	1.825889945	-0.04271000251	-10.38365555	8.523357391	174.8169708	1.0
29	-0.3646599948	1.825889945	-0.04271000251	-12.03645039	9.314248085	174.7576447	1.0
30	-0.3646599948	1.825889945	-0.04271000251	-13.60752487	10.42198658	174.3833008	1.0
31	-0.3646599948	1.825889945	-0.04271000251	-14.96653748	11.78781414	173.5645142	1.0
32	-0.3646599948	1.825889945	-0.04271000251	-15.66296577	12.93743134	172.2456665	1.0
[RightArm]
28	-1.24003005	0	0	49.30948639	1.884533405	-98.92619324	1.0
29	-1.24003005	0	0	50.13035965	7.471871853	-100.6053467	1.0
30	-1.24003005	0	0	50.95537949	13.5794878	-102.1748047	1.0
31	-1.24003005	0	0	52.01464462	20.09840775	-104.0204315	1.0
32	-1.24003005	0	0	54.32852554	27.47122002	-106.0289764	1.0
[RightForeArm]
28	-2.847419977	0	0	-10.27863598	34.34968948	164.7894592	1.0
29	-2.847419977	0	0	-13.6114397	39.4903183	158.5322876	1.0
30	-2.847419977	0	0	-19.79185486	44.1389122	148.6192322	1.0
31	-2.847419977	0	0	-28.68953705	46.6685257	134.9135132	1.0
32	-2.847419977	0	0	-37.22499466	44.26922607	120.2926941	1.0
[RightHand]
28	-2.258270025	0	0	-6.335758686	12.16045094	172.6937714	1.0
29	-2.258270025	0	0	-6.827773094	12.05874729	170.5556793	1.0
30	-2.258270025	0	0	-7.893104553	11.8795557	169.5024567	1.0
31	-2.258270025	0	0	-9.548936844	11.52674389	168.0634613	1.0
32	-2.258270025	0	0	-12.08813	10.97769356	168.7711182	1.0
[LeftUpLeg]
28	0.9119900465	0	0	-26.40292358	-2.427033424	100.3067932	1.0
29	0.9119900465	0	0	-24.89024734	-2.423158407	101.9930267	1.0
30	0.9119900465	0	0	-24.82130814	-0.373970747	102.3850937	1.0
31	0.9119900465	0	0	-25.13975716	1.949650764	102.7537689	1.0
32	0.9119900465	0	0	-24.63149643	1.202332258	103.7467346	1.0
[LeftLeg]
28	0	-4.371409893	0	21.38669205	0.4587499797	85.20291138	1.0
29	0	-4.371409893	0	17.18403435	3.86980629	85.45228577	1.0
30	0	-4.371409893	0	18.45455933	2.966940641	83.98060608	1.0
31	0	-4.371409893	0	23.49899101	0.2317802608	79.75229645	1.0
32	0	-4.371409893	0	29.6282711	-2.682874918	72.41725922	1.0
[LeftFoot]
28	0	-3.918009996	0	-105.9650421	97.67271423	-52.76443863	1.0
29	0	-3.918009996	0	-109.2479706	97.28121948	-55.95375824	1.0
30	0	-3.918009996	0	-94.77626038	99.41901398	-39.95843506	1.0
31	0	-3.918009996	0	-80.71829224	103.8287354	-24.43274307	1.0
32	0	-3.918009996	0	-75.61342621	107.7443695	-21.56722641	1.0
[LeftToeBase]
28	0	-0.5927900076	1.367989898	0	0	0	1.0
29	0	-0.5927900076	1.367989898	0	0	0	1.0
30	0	-0.5927900076	1.367989898	0	0	0	1.0
31	0	-0.5927900076	1.367989898	0	0	0	1.0
32	0	-0.5927900076	1.367989898	0	0	0	1.0
[RightUpLeg]
28	-0.9119900465	0	0	17.63527679	-7.914684296	87.91874695	1.0
29	-0.9119900465	0	0	21.68526077	-8.504091263	86.62918091	1.0
30	-0.9119900465	0	0	26.35222054	-9.397164345	84.91132355	1.0
31	-0.9119900465	0	0	31.78387833	-10.84879398	82.27619171	1.0
32	-0.9119900465	0	0	38.22592163	-12.92513752	77.81894684	1.0
[RightLeg]
28	0	-4.371409893	0	2.074409008	-3.599607944	90.68063354	1.0
29	0	-4.371409893	0	2.312254429	-3.377967358	89.97968292	1.0
30	0	-4.371409893	0	2.171441317	-3.568984985	89.59461212	1.0
31	0	-4.371409893	0	1.783461809	-3.691699982	89.44111633	1.0
32	0	-4.371409893	0	0.9908582568	-5.176410675	89.32220459	1.0
[RightFoot]
28	0	-3.918009996	0	30.11035538	60.47915649	90.08049774	1.0
29	0	-3.918009996	0	32.5522728	59.90510178	93.55791473	1.0
30	0	-3.918009996	0	37.1043663	58.75463104	98.66939545	1.0
31	0	-3.918009996	0	44.06974792	56.87732697	105.2970886	1.0
32	0	-3.918009996	0	54.45672989	52.21982574	113.6265259	1.0
[RightToeBase]
28	0	-0.5927900076	1.367989898	0	0	0	1.0
29	0	-0.5927900076	1.367989898	0	0	0	1.0
30	0	-0.5927900076	1.367989898	0	0	0	1.0
31	0	-0.5927900076	1.367989898	0	0	0	1.0
32	0	-0.5927900076	1.367989898	0	0	0	1.0
[EndOfFile]
